<?xml version="1.0" encoding="UTF-8"?>
<!DOCTYPE svg PUBLIC "-//W3C//DTD SVG 1.1//EN" "http://www.w3.org/Graphics/SVG/1.1/DTD/svg11.dtd">
<!-- Creator: CorelDRAW -->
<svg xmlns="http://www.w3.org/2000/svg" xml:space="preserve" width="50mm" height="50mm" version="1.1" style="shape-rendering:geometricPrecision; text-rendering:geometricPrecision; image-rendering:optimizeQuality; fill-rule:evenodd; clip-rule:evenodd"
viewBox="0 0 5000 5000"
 xmlns:xlink="http://www.w3.org/1999/xlink"
 xmlns:xodm="http://www.corel.com/coreldraw/odm/2003">
 <defs>
  <style type="text/css">
   <![CDATA[
    .fil0 {fill:#FFF212}
   ]]>
  </style>
 </defs>
 <g id="Camada_x0020_1">
  <metadata id="CorelCorpID_0Corel-Layer"/>
  <path class="fil0" d="M711.67 2733.87c-33.55,7.95 -21.71,28.08 -30.2,5.37 -2.01,0.14 -8.79,1.08 -10.03,1.1 -33.7,0.6 -34.37,-15.83 -79.78,21.05 -45.89,37.26 -103.06,50.28 -108.62,53.84l-98.25 62.75c-17.5,7.29 -28.41,17.45 -47.68,22.01 14.48,55.14 -5.05,31.02 -15.71,71.81 -13.08,50.04 5.8,45.73 -36.79,85.25 -1.21,1.13 -4.66,4.39 -5.87,5.52l-22.16 28.57c-21.44,38.05 -29.68,27.19 5.1,84.89 14.62,24.25 19.25,48.13 -13.32,63.2l-13.45 4.17c-11.33,3.06 -9.17,0.72 -23.07,6.33 -1.26,0.5 -2.7,1.32 -3.92,1.87 -1.22,0.54 -2.65,1.4 -3.84,1.95 -45.57,21.24 -54.27,13.99 -88.49,55.85 -27.47,33.59 7.83,20.24 -18.76,57.76 -7.86,11.1 -0.77,-1.38 -7.42,9.75 14.37,2.97 22.22,4.26 30.09,13.25 20.51,23.43 16.25,18.9 77.81,41.09 41.67,15.01 85.24,33.45 129.78,51 41.32,16.29 84.6,36.72 130.24,45.23l602.84 124.4c12.96,5.59 16.59,8.45 27.11,13.46l396.39 184.28c10.66,4.83 30.41,7.81 54.76,9.56l218.39 0c246.94,0 493.88,0 740.81,0 10.64,-46.74 31.72,-29.44 72.02,-29.25 26.95,0.13 67.22,-12.65 93.38,-17.66l6.04 14.74c26.19,-1.45 17.03,-1.91 39.13,-8.31 4.16,-22.96 4.51,-35.75 4.76,-55.16 47.86,-8.5 15.21,-10.67 53.65,-36.39 0.61,-0.41 2.35,-1.17 3.38,-1.93 -11.41,-18.42 -7.2,-6.92 -8.35,-23.83 -3.88,-56.82 35.6,-39.04 51.57,-36.12 1.07,-2.55 5.17,-10.46 5.25,-10.67 19.88,-52.67 9.7,-17.11 37.89,-73.48 47.58,-2.24 96.95,0.43 145.04,0.18 51.4,-0.28 93.29,4 107.8,36.74 3.02,18.4 3.48,18.81 14.83,30.56l42.78 37.41c0.85,0.85 1.79,2.28 2.59,3.14 19.66,21.02 13.92,9.89 25.27,14.63l11.92 31.82c20.38,15.18 2.53,-21.82 20.86,3.61 2.93,4.07 1.49,4.58 2.34,8.85 1.81,8.91 -19.6,-3.88 13.99,19.34 1.33,0.92 5.54,3.6 6.97,4.54 2.44,1.6 10.41,6.68 10.51,6.74 1.01,0.69 2.47,1.6 3.46,2.31 24.71,17.61 8.77,15.19 26.62,24.61 23.34,9.75 -21.22,-5.08 9.77,0.86 10.58,2.02 2.44,-1.12 10.78,2.66 18.24,8.27 1.23,4.58 21.74,17.91 26.63,-5.5 29.5,-9.31 30.2,-37.51 11.71,4.8 11.56,11.3 36.26,-10.24 248.89,4.49 534.98,0.57 791.41,1.22 56.59,0.15 61.64,6.11 97.11,-16.6l-25.16 -6.53c8.98,-43.34 2.15,-40.37 4.85,-51.98 2.39,-10.28 18.74,-23.15 23.02,-45.55 16,-83.75 -9.73,-56.52 -14.9,-111.46 15.52,-13.5 44.23,-33.52 44.4,-71.11 0.15,-35.06 6.15,-19.46 15.12,-40.6 5.75,-13.54 -1.08,-6.36 -5.42,-49.05l-23.57 -27.48c-0.88,-0.77 -2.24,-1.83 -3.1,-2.6 -0.86,-0.77 -2.16,-1.88 -2.99,-2.66l-12.7 -14.15c-26.22,-7.46 -49.47,-41.91 -34.7,-74.03l41.1 -39.8c0.84,-0.79 2.13,-1.89 2.98,-2.68 15.01,-13.89 -0.39,3.36 11.67,-10.85l441.38 -846.58c12.31,-24.35 23.44,-46.79 36.21,-69.54 37.48,-66.77 22.27,-39.84 11.41,-59.85 14.2,-17.2 9.35,-28.96 33.67,-37.99l12.08 -1.39c10.56,-8.14 7.5,-7.27 24.17,-10.72l6.04 -5.36 6.05 -5.35c4.18,-13.89 10.52,-19.42 18.12,-32.16 -39.84,2.94 -42.94,11.04 -60.73,21.23 -38.36,21.94 -41.29,-2 -84.27,16.28 -2.79,-22.64 5.96,-16.08 -30.2,-16.08 14.98,-27.69 6.12,-23.19 -20.22,-25.61l-7.95 -0.52c-14.26,-2.79 -2.44,0.12 -10.46,-3.86l-49.46 -41.91c-0.93,-0.74 -2.24,-1.81 -3.18,-2.54 -72.58,-56.52 -35.07,5 -117.76,-40.36 -61.19,-33.57 -27.96,-2.62 -58.14,-28.31l-20.48 -14.36c-19.26,-10.19 2.89,-6.47 -26.5,-8.64 4.96,-18.89 6.04,-17.61 6.04,-42.87 -19.08,-11.34 -29.34,-14.56 -36.25,-37.51 -17.38,3.59 -29.27,9.69 -36.25,26.79l-18.12 0c0,0 0.32,-9.3 -11.25,-15.6 -9.84,-5.35 2.73,-4.55 -18.96,-0.47 -0.34,-13.54 0.52,-11.78 -2.96,-24.18 -8.47,-30.17 0.49,-8.87 -13.7,-20.41l-63.1 -51.12c-14.5,-26.08 17.92,-30.09 -18.19,-58.83l-15.89 -15.49c-14.38,-25.15 -10.05,-23.79 -9.25,-36.08 1.92,-29.67 -3.77,-70.97 -3.77,-110.05l-30.21 0 0 -21.44 -314.15 0c-2.47,26.31 -9.42,22.35 -15.2,29.39l-32.58 56.86c-7.43,15.88 -12.07,17.33 -18.43,31.31 -11.61,25.55 10.96,-4.75 -23,55.77 -20.88,37.2 13.42,27.36 16.71,62.46 -18.84,8.84 -18.94,10.71 -48.33,10.71 -1.36,14.47 -2.84,14.58 -6.04,26.8 -17.24,-3.57 -13.73,-1.68 -27.65,-3.1 -25.95,-2.64 -24.28,-23.09 -68.37,-56.47 -4.9,-3.71 -2.43,-2.11 -7.37,-6.56 -14.07,-12.7 -51.91,-24.97 -89.93,-24.97 -5.01,40.54 -22.59,-2.11 -70.23,50.24 -2.77,3.04 -10.79,11.45 -10.99,11.69 -28.08,35.51 -4.11,60.02 -9.95,80.27l-4.33 15.72c-23.95,85.91 18.4,19.86 -13.25,61.78 20.92,4.32 15.34,2.01 26.53,13.98l15.76 23.53c-33.3,-15.63 -22.1,-31.28 -70.47,-39.35 -34.2,-5.71 -16.53,10.06 -32.36,-8.71 -10.87,-12.9 -5.57,-17.25 -22.98,-33.25l-58.93 -49.55c-15.96,-10.14 -20.78,-10.12 -36.35,-21.39 -19.89,-14.4 -13.73,-11.57 -26.6,-27.62 -34.56,-6.49 -28.53,-0.7 -30.58,-23.75l16.86 -3.14c17.01,-1.74 -9.11,3.19 12.07,-0.61 13.13,-2.36 6.74,-5.46 29.42,-10.31 -13.26,-59.81 8.15,-33.5 24.76,-71.59 -9.28,-23.2 -4.19,1.22 -11.88,-17.4 -3.59,-8.68 -0.06,-9.59 -3.19,-19.97 -7.11,-23.61 -17.37,-13.04 -19.03,-43.1 -0.75,-33.38 -8.44,-40.48 -7.75,-67.53 1,-39.91 -17.65,1.9 -20.37,-64.67 -1.18,-28.77 -0.81,-25.87 21.77,-39.28 -11.85,-39.36 3.39,-18.4 -1.75,-51.61 -5.12,-33.11 -18.51,-20.12 -29.54,-49.24 -13.42,-35.42 -19.21,-53.34 -47.94,-80.73l-5.85 -5.52c-5.86,-5.58 -5.06,-3.27 -11.58,-11.16 15.33,-20.31 21.27,-10.34 22.45,-36.1l7.75 -44.28c-4.72,-2.81 -21.76,-11.93 -25.33,-15.04 -13.74,-11.95 3.39,-7.18 -24.57,-21.11 -33.22,-16.55 -36.69,-9.25 -70.92,-6.72l0 -16.08 -169.16 0c-3.81,10.19 -24.53,15.99 -36.96,20.61 -16.59,6.17 -31.11,0.83 -59.7,0.83 -16.76,41.06 -18.13,25.48 -18.13,85.74 -5.38,3.19 -12.98,7.3 -18,10.82l-19.36 14.98c-20.28,13.39 -26.5,5.56 -29.09,33.14l-18.13 0c4.37,-16.63 7.72,-15.52 12.09,-32.15 -20.01,1.48 -47.57,17.01 -58.72,28.3 -32.85,33.25 -36.82,17.56 -43.99,41.36 -21.78,-5.16 -16.16,-0.49 -18.12,-21.44l-28.98 20.15c-18.9,7 -16.33,12.78 -27.26,20.67 -27.01,19.52 -41.16,-21.97 -45.04,42.65 -0.11,1.88 -1.16,10.16 -1.42,12.99 -26.55,-0.53 -18.82,-3.63 -42.29,-5.36 -7.13,11.95 -10.08,16.14 -18.12,26.79 -26.83,-15.93 -30.54,-19.29 -48.34,-42.87 -36.65,0 -53.44,3.55 -83.62,22.29l-50.99 29.79c-6.77,3.12 -12.04,8.54 -16.42,12.23 -25.08,-5.95 -5.72,-7.07 -28.84,-7.41 -39.91,-0.57 -23.46,5.24 -87.41,-44.88l-51.1 -40.44c-43.09,-33.06 -6.37,-20.91 -62.22,-19.8 0,-41.46 3.43,-94.05 -14.86,-120.79l-27.57 -23.77c-1.27,-1.07 -4.86,-4.2 -6.12,-5.29 -0.89,-0.77 -2.27,-1.79 -3.15,-2.57 -16.44,-14.68 -20.16,-31.06 -20.8,-56.57l-0.95 0 -75.05 0 -2.26 0.26c-25.66,3.39 -38.71,17.03 -66.73,5.1 -8.57,14.36 -34.92,44.87 -48.33,53.59l-42.2 -26.87c-10.54,-7.79 -0.14,-6.36 -18.22,-10.64 -12.07,7.17 -23.89,14.95 -22.81,31.58 1.18,18.37 16.65,19.18 22.81,32.72 -57.97,-24.67 -280.84,7.03 -332.87,-5.47l-49.37 -6.91 -70.85 17.74 0 150.04c18.66,6.84 2.12,7.73 24.16,-5.36l0 32.15c31.92,-2.35 11.98,-10.07 38.02,-7.3l68.7 8.87c31.47,1.15 4.01,-4.4 38.27,-6.93 0.53,0.97 5.75,11.02 5.99,11.38l10.85 26.89c-3.06,12.82 1.15,-4.34 -2.72,9.63l-0.48 20.59c0.5,0.85 8.29,8.93 10.52,11.89 -41.55,4.03 -0.67,4.54 -26.57,8.15 -10.69,1.5 -6.34,0.26 -11.27,-0.39l-10.58 -2.53c-27.3,-5.86 -24.44,-12.53 -48.23,-26.66 -10.43,8.77 -21.93,22.81 -38.06,21.43 -46.11,-3.98 15.97,3.11 -93.41,22.06l-19.57 4.74 -6.04 182.19c25.61,6.06 28,22.24 46.57,39.07 17.73,16.07 28.79,17.45 47.52,27.51 1.12,0.6 2.56,1.5 3.65,2.13 1.08,0.62 2.53,1.52 3.59,2.17 40.16,24.52 27.67,26.37 22.6,54.7 -3.17,17.76 -1.77,9.86 10.93,27.8 16.31,23.04 47.93,49.4 41.75,78.76 -5.63,26.71 4.72,32.12 -5.55,58.49 -17.66,45.37 -19.36,96.95 -28.65,146.48l-101.59 499.33c-4.48,20.16 -6.38,52.29 -28.74,60.26 -11.85,4.65 4.2,3.43 -9.65,-2.68 -0.73,-0.33 -2.32,-1.29 -3.16,-1.67l-16.66 -6.99c-14.3,-4.86 -30.59,-3.97 -39.63,-14.1 -0.58,-0.64 -1.37,-2.28 -1.92,-2.97l-8.25 -10.79c-0.58,-0.41 -2.11,-1.22 -2.74,-1.57 -22.2,-11.94 -42.26,-3.89 -64.26,-2.32l-45.28 2c-48.28,6.48 -24.92,30.42 -56.15,46.45 -0.78,0.3 -2.34,-0.92 -2.56,-0.16 -3.96,13.41 8.27,-5.62 -20.59,4.58 -21.64,7.65 -40.02,2.96 -67.47,0.93 -0.42,0.82 -0.38,1.53 -0.46,2.68 -0.07,1.12 -0.43,2.3 -0.54,2.6 -4.47,11.9 -36.25,6.45 -56.81,12.86l-8.64 3.29z"/>
 </g>
</svg>
